<svg data-name="Component 48 – 1" xmlns="http://www.w3.org/2000/svg" width="28" height="28" viewBox="0 0 28 28">
    <path data-name="Rectangle 38632" style="fill:#fff" d="M0 0h28v28H0z"/>
    <g data-name="Group 6856">
        <g data-name="-e-favorite-icn" style="fill:none">
            <path d="M619.048 453.122a7.416 7.416 0 0 0-10.3 0l-.659.643-.659-.643a7.415 7.415 0 0 0-10.3 0 7.067 7.067 0 0 0-.042 10.01c2.515 2.727 9.93 8.62 10.245 8.87a1.164 1.164 0 0 0 .726.253h.025a1.123 1.123 0 0 0 .751-.252c.315-.249 7.732-6.142 10.247-8.87a7.067 7.067 0 0 0-.034-10.011z" style="stroke:none" transform="translate(-594.041 -448.043)"/>
            <path d="M602.286 452.543a5.83 5.83 0 0 0-4.1 1.652c-1.056 1.03-1.64 2.391-1.646 3.833-.006 1.468.583 2.92 1.659 4.087 2.01 2.179 7.649 6.784 9.893 8.567 1.162-.927 7.644-6.127 9.895-8.568 1.076-1.167 1.665-2.618 1.658-4.086-.006-1.442-.59-2.803-1.645-3.833a5.831 5.831 0 0 0-4.1-1.652 5.83 5.83 0 0 0-4.101 1.652l-1.707 1.665-1.706-1.665a5.83 5.83 0 0 0-4.1-1.652m0-1.5a7.35 7.35 0 0 1 5.148 2.079l.659.642.659-.642c2.838-2.771 7.457-2.771 10.296 0 2.78 2.714 2.799 7.017.042 10.009-2.515 2.728-9.932 8.62-10.247 8.87-.22.176-.487.264-.75.252h-.026c-.255 0-.512-.082-.726-.252-.315-.25-7.73-6.142-10.245-8.87-2.757-2.992-2.74-7.295.042-10.01a7.35 7.35 0 0 1 5.148-2.078z" style="fill:#111;stroke:none" transform="translate(-594.041 -448.043)"/>
        </g>
    </g>
</svg>
